<svg xmlns="http://www.w3.org/2000/svg" width="894" height="129" fill="none"><path fill="#1A1A1A" d="M1 118.5C129 44 230.864 167.5 296.5 95 220 179.5 159.5 70.5 1 118.5Z"/><path fill="#1A1A1A" d="M44 79.5 23.5 100l15-9.5 2 4.5L58 90.5l6.5-5h6V73L81 81l-5.5 8h16l22-6.5L137 95h5.5c-8.581-14.42-18.366-20.681-39.5-30.5l9.5-5L135 32l11-14 5.5 6.5V34h-9l-19 19.5H137c12.192 15.487 14.5 15.5 36 26s19.216 9.86 26 17.5c1.969-6.385 2.694-10.023-2.5-17.5-6.306-2.647-14.58-10.3-32.5-29 6.541-1.718 10.025-.867 16 3 10.133 14.595 16.543 21.164 23.5 25 5.919 6.712 4.835 13.96 1.5 28 1.21-3.088 8.724-11.264 11.5-10.5l17 12c-3.862-11.178-31.296-37.024-39-40.5-4.881-11.616-15.026-29.887-17-30l-15.5-11L148.5 2 130 22v8c-.667-.833-2.5-2-4.5 0l-17 27-8.5 2.5-16 18L67.5 63l-16 16.5H44Z"/><path fill="#1A1A1A" d="m207 42.5-13 18c9.874-8.955 11.364-9.19 11.5-2.5 3.063-9.217 7.986-14.821 17-17 3.787 3.121 4.5 7 4.5 7s-3.026 6.738-5.5 11.5c5.108-.92 8.876-.543 18.5 3-1.716 9.706-1.381 13.62 1 18.5 2.126-6.976 4.048-9.396 11-6.5 2.166 5.516 2.431 10.987 3 20.5l5.5-14c15.977 9.8 21.686 10.896 30.5 11-21.589-9.555-32.353-17.666-47-41.5l-9-2.5-13.5-18c-3.798 7.802-6.899 10.654-14.5 12.5Z"/><path stroke="#1A1A1A" d="M1 118.5C129 44 230.864 167.5 296.5 95 220 179.5 159.5 70.5 1 118.5Z"/><path stroke="#1A1A1A" d="M44 79.5 23.5 100l15-9.5 2 4.5L58 90.5l6.5-5h6V73L81 81l-5.5 8h16l22-6.5L137 95h5.5c-8.581-14.42-18.366-20.681-39.5-30.5l9.5-5L135 32l11-14 5.5 6.5V34h-9l-19 19.5H137c12.192 15.487 14.5 15.5 36 26s19.216 9.86 26 17.5c1.969-6.385 2.694-10.023-2.5-17.5-6.306-2.647-14.58-10.3-32.5-29 6.541-1.718 10.025-.867 16 3 10.133 14.595 16.543 21.164 23.5 25 5.919 6.712 4.835 13.96 1.5 28 1.21-3.088 8.724-11.264 11.5-10.5l17 12c-3.862-11.178-31.296-37.024-39-40.5-4.881-11.616-15.026-29.887-17-30l-15.5-11L148.5 2 130 22v8c-.667-.833-2.5-2-4.5 0l-17 27-8.5 2.5-16 18L67.5 63l-16 16.5H44Z"/><path stroke="#1A1A1A" d="m207 42.5-13 18c9.874-8.955 11.364-9.19 11.5-2.5 3.063-9.217 7.986-14.821 17-17 3.787 3.121 4.5 7 4.5 7s-3.026 6.738-5.5 11.5c5.108-.92 8.876-.543 18.5 3-1.716 9.706-1.381 13.62 1 18.5 2.126-6.976 4.048-9.396 11-6.5 2.166 5.516 2.431 10.987 3 20.5l5.5-14c15.977 9.8 21.686 10.896 30.5 11-21.589-9.555-32.353-17.666-47-41.5l-9-2.5-13.5-18c-3.798 7.802-6.899 10.654-14.5 12.5Z"/><path fill="#1A1A1A" d="M354.736 100.816v-3.984h12.912v3.984h-12.912ZM408.924 112l-11.232-33.6h4.944l10.32 31.008h-2.496L421.164 78.4h4.416l10.464 31.008h-2.4L444.108 78.4h4.56L437.436 112h-5.04l-9.792-28.752h1.296L414.06 112h-5.136Zm49.984-19.104h17.28v4.08h-17.28v-4.08Zm.432 14.928h19.584V112H454.54V78.4h23.712v4.176H459.34v25.248ZM486.696 112V78.4h15.072c3.872 0 6.848.784 8.928 2.352 2.08 1.536 3.12 3.648 3.12 6.336 0 1.824-.416 3.36-1.248 4.608-.8 1.248-1.888 2.208-3.264 2.88-1.376.672-2.864 1.008-4.464 1.008l.864-1.44c1.92 0 3.616.336 5.088 1.008 1.472.672 2.64 1.664 3.504 2.976.864 1.28 1.296 2.88 1.296 4.8 0 2.88-1.088 5.12-3.264 6.72-2.144 1.568-5.344 2.352-9.6 2.352h-16.032Zm4.8-3.888h11.04c2.656 0 4.688-.448 6.096-1.344 1.408-.896 2.112-2.304 2.112-4.224 0-1.952-.704-3.376-2.112-4.272-1.408-.896-3.44-1.344-6.096-1.344h-11.472V93.04h10.272c2.432 0 4.32-.448 5.664-1.344 1.344-.896 2.016-2.24 2.016-4.032 0-1.792-.672-3.136-2.016-4.032-1.344-.896-3.232-1.344-5.664-1.344h-9.84v25.824Zm57.31 3.888V78.4h14.16c3.584 0 6.736.704 9.456 2.112 2.752 1.408 4.88 3.376 6.384 5.904 1.536 2.528 2.304 5.456 2.304 8.784 0 3.328-.768 6.256-2.304 8.784-1.504 2.528-3.632 4.496-6.384 5.904-2.72 1.408-5.872 2.112-9.456 2.112h-14.16Zm4.8-4.176h9.072c2.784 0 5.184-.528 7.2-1.584 2.048-1.056 3.632-2.528 4.752-4.416 1.12-1.92 1.68-4.128 1.68-6.624 0-2.528-.56-4.736-1.68-6.624-1.12-1.888-2.704-3.36-4.752-4.416-2.016-1.056-4.416-1.584-7.2-1.584h-9.072v25.248Zm39.224-14.928h17.28v4.08h-17.28v-4.08Zm.432 14.928h19.584V112h-24.384V78.4h23.712v4.176h-18.912v25.248Zm37.148 4.56c-2.56 0-5.008-.384-7.344-1.152-2.336-.8-4.176-1.824-5.52-3.072l1.776-3.744c1.28 1.12 2.912 2.048 4.896 2.784a17.66 17.66 0 0 0 6.192 1.104c1.952 0 3.536-.224 4.752-.672 1.216-.448 2.112-1.056 2.688-1.824a4.49 4.49 0 0 0 .864-2.688c0-1.152-.384-2.08-1.152-2.784-.736-.704-1.712-1.264-2.928-1.68a28.781 28.781 0 0 0-3.936-1.152 79.394 79.394 0 0 1-4.368-1.104 21.282 21.282 0 0 1-3.984-1.68 8.289 8.289 0 0 1-2.88-2.688c-.736-1.152-1.104-2.624-1.104-4.416 0-1.728.448-3.312 1.344-4.752.928-1.472 2.336-2.64 4.224-3.504 1.92-.896 4.352-1.344 7.296-1.344 1.952 0 3.888.256 5.808.768s3.584 1.248 4.992 2.208l-1.584 3.84a14.974 14.974 0 0 0-4.56-2.064c-1.6-.448-3.152-.672-4.656-.672-1.888 0-3.44.24-4.656.72-1.216.48-2.112 1.12-2.688 1.92a4.672 4.672 0 0 0-.816 2.688c0 1.184.368 2.128 1.104 2.832.768.704 1.744 1.264 2.928 1.68 1.216.416 2.544.8 3.984 1.152 1.44.32 2.88.688 4.32 1.104 1.472.416 2.8.96 3.984 1.632a8.167 8.167 0 0 1 2.928 2.688c.736 1.12 1.104 2.56 1.104 4.32 0 1.696-.464 3.28-1.392 4.752-.928 1.44-2.368 2.608-4.32 3.504-1.92.864-4.352 1.296-7.296 1.296Zm20.021-.384V78.4h4.8V112h-4.8Zm30.027.384c-2.592 0-4.976-.416-7.152-1.248-2.176-.864-4.064-2.064-5.664-3.6a17.003 17.003 0 0 1-3.744-5.472c-.896-2.08-1.344-4.368-1.344-6.864 0-2.496.448-4.784 1.344-6.864a16.464 16.464 0 0 1 3.744-5.424c1.632-1.568 3.536-2.768 5.712-3.6 2.176-.864 4.576-1.296 7.2-1.296 2.656 0 5.088.432 7.296 1.296 2.208.864 4.08 2.16 5.616 3.888l-2.976 2.976c-1.376-1.344-2.88-2.32-4.512-2.928-1.6-.64-3.344-.96-5.232-.96-1.92 0-3.712.32-5.376.96-1.632.64-3.056 1.536-4.272 2.688-1.184 1.152-2.112 2.528-2.784 4.128-.64 1.568-.96 3.28-.96 5.136 0 1.824.32 3.536.96 5.136a13.048 13.048 0 0 0 2.784 4.128c1.216 1.152 2.64 2.048 4.272 2.688 1.632.64 3.408.96 5.328.96 1.792 0 3.504-.272 5.136-.816 1.664-.576 3.2-1.52 4.608-2.832l2.736 3.648c-1.664 1.408-3.616 2.48-5.856 3.216a22.458 22.458 0 0 1-6.864 1.056Zm8.112-4.896v-12.48h4.608v13.104l-4.608-.624ZM702.368 112V78.4h3.936l22.224 27.6h-2.064V78.4h4.8V112h-3.936l-22.224-27.6h2.064V112h-4.8Zm48.745.384c-2.56 0-5.008-.384-7.344-1.152-2.336-.8-4.176-1.824-5.52-3.072l1.776-3.744c1.28 1.12 2.912 2.048 4.896 2.784a17.66 17.66 0 0 0 6.192 1.104c1.952 0 3.536-.224 4.752-.672 1.216-.448 2.112-1.056 2.688-1.824a4.49 4.49 0 0 0 .864-2.688c0-1.152-.384-2.08-1.152-2.784-.736-.704-1.712-1.264-2.928-1.68a28.781 28.781 0 0 0-3.936-1.152 79.394 79.394 0 0 1-4.368-1.104 21.282 21.282 0 0 1-3.984-1.68 8.289 8.289 0 0 1-2.88-2.688c-.736-1.152-1.104-2.624-1.104-4.416 0-1.728.448-3.312 1.344-4.752.928-1.472 2.336-2.64 4.224-3.504 1.92-.896 4.352-1.344 7.296-1.344 1.952 0 3.888.256 5.808.768s3.584 1.248 4.992 2.208l-1.584 3.84a14.974 14.974 0 0 0-4.56-2.064c-1.6-.448-3.152-.672-4.656-.672-1.888 0-3.44.24-4.656.72-1.216.48-2.112 1.12-2.688 1.92a4.672 4.672 0 0 0-.816 2.688c0 1.184.368 2.128 1.104 2.832.768.704 1.744 1.264 2.928 1.68 1.216.416 2.544.8 3.984 1.152 1.44.32 2.88.688 4.32 1.104 1.472.416 2.8.96 3.984 1.632a8.167 8.167 0 0 1 2.928 2.688c.736 1.12 1.104 2.56 1.104 4.32 0 1.696-.464 3.28-1.392 4.752-.928 1.44-2.368 2.608-4.32 3.504-1.92.864-4.352 1.296-7.296 1.296Zm43.498-11.568v-3.984h12.912v3.984h-12.912ZM282.64 57V1h24.24c5.013 0 9.333.827 12.96 2.48 3.627 1.6 6.427 3.92 8.4 6.96 1.973 3.04 2.96 6.667 2.96 10.88 0 4.16-.987 7.76-2.96 10.8-1.973 3.04-4.773 5.387-8.4 7.04-3.627 1.6-7.947 2.4-12.96 2.4h-17.04l5.76-5.84V57h-12.96Zm12.96-19.84L289.84 31h16.32c4 0 6.987-.853 8.96-2.56 1.973-1.707 2.96-4.08 2.96-7.12 0-3.093-.987-5.493-2.96-7.2-1.973-1.707-4.96-2.56-8.96-2.56h-16.32l5.76-6.16v31.76Zm69.42 20.8c-7.947 0-14.16-2.213-18.64-6.64s-6.72-10.747-6.72-18.96V1h12.96v30.88c0 5.333 1.093 9.173 3.28 11.52 2.187 2.347 5.253 3.52 9.2 3.52 3.947 0 7.013-1.173 9.2-3.52 2.187-2.347 3.28-6.187 3.28-11.52V1h12.8v31.36c0 8.213-2.24 14.533-6.72 18.96-4.48 4.427-10.693 6.64-18.64 6.64Zm65.207 0c-4.427 0-8.507-.693-12.24-2.08-3.68-1.44-6.907-3.467-9.68-6.08-2.72-2.613-4.853-5.68-6.4-9.2-1.493-3.52-2.24-7.387-2.24-11.6s.747-8.08 2.24-11.6a27.975 27.975 0 0 1 6.48-9.2c2.773-2.613 6.027-4.613 9.76-6 3.733-1.44 7.84-2.16 12.32-2.16 4.96 0 9.413.827 13.36 2.48 4 1.653 7.36 4.053 10.08 7.2l-8.32 7.68c-2.027-2.133-4.24-3.707-6.64-4.72-2.4-1.067-5.013-1.6-7.84-1.6-2.72 0-5.2.427-7.44 1.28s-4.187 2.08-5.84 3.68c-1.6 1.6-2.853 3.493-3.76 5.68-.853 2.187-1.28 4.613-1.28 7.28 0 2.613.427 5.013 1.28 7.2a18.252 18.252 0 0 0 3.76 5.76 17.16 17.16 0 0 0 5.76 3.68c2.24.853 4.693 1.28 7.36 1.28 2.56 0 5.04-.4 7.44-1.2 2.453-.853 4.827-2.267 7.12-4.24l7.36 9.36c-3.04 2.293-6.587 4.053-10.64 5.28-4 1.227-8 1.84-12 1.84Zm10.8-8.8V28.12h11.84v22.72l-11.84-1.68Zm35.799-25.6h26.96v10.08h-26.96V23.56Zm.96 23.04h30.48V57h-43.36V1h42.32v10.4h-29.44v35.2ZM530.178 57V11.56h-17.92V1h48.8v10.56h-17.92V57h-12.96Zm78.909.96c-4.48 0-8.773-.587-12.88-1.76-4.107-1.227-7.413-2.8-9.92-4.72l4.4-9.76c2.4 1.707 5.227 3.12 8.48 4.24 3.307 1.067 6.64 1.6 10 1.6 2.56 0 4.613-.24 6.16-.72 1.6-.533 2.773-1.253 3.52-2.16a4.767 4.767 0 0 0 1.12-3.12c0-1.493-.587-2.667-1.76-3.52-1.173-.907-2.72-1.627-4.64-2.16-1.92-.587-4.053-1.12-6.4-1.6a90.829 90.829 0 0 1-6.96-1.92c-2.293-.747-4.4-1.707-6.32-2.88a14.53 14.53 0 0 1-4.72-4.64c-1.173-1.92-1.76-4.373-1.76-7.36 0-3.2.853-6.107 2.56-8.72 1.76-2.667 4.373-4.773 7.84-6.32 3.52-1.6 7.92-2.4 13.2-2.4 3.52 0 6.987.427 10.4 1.28 3.413.8 6.427 2.027 9.04 3.68l-4 9.84c-2.613-1.493-5.227-2.587-7.84-3.28-2.613-.747-5.173-1.12-7.68-1.12-2.507 0-4.56.293-6.16.88-1.6.587-2.747 1.36-3.44 2.32-.693.907-1.04 1.973-1.04 3.2 0 1.44.587 2.613 1.76 3.52 1.173.853 2.72 1.547 4.64 2.08 1.92.533 4.027 1.067 6.32 1.6 2.347.533 4.667 1.147 6.96 1.84 2.347.693 4.48 1.627 6.4 2.8a13.787 13.787 0 0 1 4.64 4.64c1.227 1.92 1.84 4.347 1.84 7.28 0 3.147-.88 6.027-2.64 8.64-1.76 2.613-4.4 4.72-7.92 6.32-3.467 1.6-7.867 2.4-13.2 2.4Zm59.816 0c-4.427 0-8.534-.72-12.32-2.16-3.734-1.44-6.987-3.467-9.761-6.08-2.719-2.613-4.853-5.68-6.399-9.2-1.494-3.52-2.24-7.36-2.24-11.52 0-4.16.746-8 2.24-11.52a27.945 27.945 0 0 1 6.48-9.2c2.773-2.613 6.026-4.64 9.76-6.08 3.733-1.44 7.786-2.16 12.16-2.16 4.426 0 8.479.72 12.16 2.16 3.733 1.44 6.96 3.467 9.68 6.08a27.975 27.975 0 0 1 6.48 9.2c1.546 3.467 2.32 7.307 2.32 11.52 0 4.16-.774 8.027-2.32 11.6a27.975 27.975 0 0 1-6.48 9.2c-2.72 2.56-5.947 4.56-9.68 6-3.681 1.44-7.707 2.16-12.08 2.16Zm-.08-11.04c2.506 0 4.8-.427 6.88-1.28 2.133-.853 4-2.08 5.6-3.68 1.6-1.6 2.826-3.493 3.68-5.68.906-2.187 1.36-4.613 1.36-7.28s-.454-5.093-1.36-7.28c-.854-2.187-2.08-4.08-3.68-5.68-1.547-1.6-3.387-2.827-5.52-3.68-2.134-.853-4.454-1.28-6.96-1.28-2.507 0-4.827.427-6.96 1.28-2.08.853-3.92 2.08-5.52 3.68-1.6 1.6-2.854 3.493-3.76 5.68-.854 2.187-1.28 4.613-1.28 7.28 0 2.613.426 5.04 1.28 7.28.906 2.187 2.133 4.08 3.68 5.68 1.6 1.6 3.466 2.827 5.6 3.68 2.133.853 4.453 1.28 6.96 1.28Zm65.26 11.04c-7.947 0-14.16-2.213-18.64-6.64s-6.72-10.747-6.72-18.96V1h12.96v30.88c0 5.333 1.093 9.173 3.28 11.52 2.186 2.347 5.253 3.52 9.2 3.52 3.946 0 7.013-1.173 9.2-3.52 2.186-2.347 3.279-6.187 3.279-11.52V1h12.801v31.36c0 8.213-2.24 14.533-6.72 18.96-4.48 4.427-10.694 6.64-18.64 6.64Zm38.166-.96V1h10.72l33.04 40.32h-5.2V1h12.8v56h-10.64l-33.12-40.32h5.2V57h-12.8Zm64.61 0V1h25.44c6.08 0 11.44 1.173 16.08 3.52 4.64 2.293 8.266 5.52 10.88 9.68 2.613 4.16 3.92 9.093 3.92 14.8 0 5.653-1.307 10.587-3.92 14.8-2.614 4.16-6.24 7.413-10.88 9.76-4.64 2.293-10 3.44-16.08 3.44h-25.44Zm12.96-10.64h11.84c3.733 0 6.96-.693 9.68-2.08 2.773-1.44 4.906-3.467 6.4-6.08 1.546-2.613 2.32-5.68 2.32-9.2 0-3.573-.774-6.64-2.32-9.2-1.494-2.613-3.627-4.613-6.4-6-2.72-1.44-5.947-2.16-9.68-2.16h-11.84v34.72Z"/></svg>